<svg xmlns="http://www.w3.org/2000/svg" width="256" height="256"><path fill-opacity=".016" d="M0 128.004v128.004l128.25-.254 128.25-.254.254-127.75L257.008 0H0v128.004m.485.496c0 70.4.119 99.053.265 63.672.146-35.38.146-92.98 0-128C.604 29.153.485 58.1.485 128.5" fill="#1976D2" fill-rule="evenodd"/><path fill-opacity=".406" d="M109.5 39.485C76.378 46.803 50.3 71.483 40.801 104.5c-1.99 6.919-2.292 10.163-2.237 24 .058 14.427.329 16.865 2.759 24.797 9.801 31.989 34.733 55.45 67.314 63.342 10.396 2.518 29.521 2.307 40.664-.449 32.758-8.102 57.989-32.894 66.85-65.69 3.161-11.698 3.162-32.662.004-44.433-8.821-32.868-33.423-57.416-65.765-65.62-7.857-1.993-11.988-2.432-22.268-2.368-6.942.044-15.322.677-18.622 1.406m18.553 29.977c-8.921 1.693-18.083 4.921-23.551 8.297-5.13 3.167-12.257 9.97-14.082 13.441-1.892 3.598-1.802 10.288.179 13.31 2.094 3.196 10.318 8.208 15.933 9.71 6.238 1.668 7.206.526 5.518-6.51-1.106-4.611-1.069-5.774.268-8.358 6.396-12.368 33.848-22.602 52.182-19.453 3.3.567 7.012 1.324 8.25 1.683 3.666 1.061 2.749-1.999-1.754-5.853-2.202-1.886-6.365-4.211-9.25-5.168-7.114-2.361-24.12-2.915-33.693-1.099M160.5 90.68c-5.526 1.236-15.702 4.952-21.5 7.85-7.284 3.641-10.53 6.645-9.653 8.933.73 1.901 4.135 1.911 12.653.037 9.871-2.171 18.159-1.949 21.365.573 2.251 1.77 2.635 2.84 2.635 7.343 0 8.828-3.727 17.782-15.44 37.099-3.608 5.949-6.56 11.193-6.56 11.651 0 2.045 5.935.503 11.942-3.101 19.507-11.704 35.072-34.397 35.024-51.065-.023-7.873-6.777-16.428-14.888-18.859-3.73-1.117-11.605-1.351-15.578-.461m-38.332 25.385c-4.342 1.734-14.182 10.229-19.515 16.848-12.744 15.817-32.264 43.809-31.254 44.819 1.003 1.003 5.79-4.015 24.075-25.232 9.481-11 18.213-20.867 19.405-21.926 4.387-3.898 4.579-.98 1.22 18.598-1.73 10.08-3.247 20.578-3.372 23.328-.199 4.393.026 5.036 1.857 5.298 4.215.602 14.264-12.058 23.867-30.068 4.202-7.883 6.549-10.115 6.549-6.23 0 6.441 7.251-5.438 9.179-15.036.923-4.597.837-5.791-.576-7.947-1.59-2.426-1.791-2.471-4.581-1.028-4.127 2.134-6.604 5.854-15.983 24.011-8.691 16.826-10.803 20.129-9.585 15 4.826-20.335 6.435-34.546 4.349-38.421-1.557-2.893-2.548-3.247-5.635-2.014" fill="#1976D2" fill-rule="evenodd"/><path fill-opacity=".081" d="M111.633 39.485c-16.902 3.525-29.857 9.854-42.899 20.957C63.453 64.939 54 76.125 54 77.878c0 .617-.477 1.122-1.059 1.122s-.823.382-.535.849c.289.466-.333 1.768-1.38 2.893-1.048 1.125-1.633 2.318-1.299 2.652.333.333.055.606-.619.606s-.948.45-.608 1c.34.55.254 1-.191 1-.445.001-.893 1.529-.995 3.397-.174 3.178 1.325 4.91 23.215 26.827 22.639 22.667 23.352 23.501 21.88 25.603-3.242 4.627-.427 1.876 3.659-3.577 9.871-13.174 23.613-25.25 28.734-25.25 1.17 0 2.593.87 3.163 1.934 1.744 3.259 1.138 14.958-1.426 27.532-1.343 6.581-2.345 12.061-2.229 12.177.117.117 4.175-7.35 9.018-16.593 8.601-16.416 12.807-22.323 16.797-23.59 6.104-1.937 6.541 8.802.819 20.142-3.311 6.563-5.944 9.238-5.944 6.04 0-4.024-2.293-1.897-6.563 6.088-2.579 4.824-6.32 11.245-8.313 14.27-1.993 3.025-3.63 6.031-3.637 6.679-.007.649-.416 1.549-.91 2-.525.481-.551.199-.062-.679.459-.825-1.405.525-4.143 3-2.737 2.475-4.833 4.696-4.656 4.935.176.239 2.002-1.207 4.058-3.214l3.737-3.65 18.905 18.924c10.398 10.408 19.283 18.691 19.745 18.406.461-.286.846.07.854.79.011.9.245.962.75.199.876-1.324 7.235-4.703 7.235-3.844 0 .328.707-.11 1.571-.975.865-.864 2.215-1.571 3-1.571.786 0 1.429-.45 1.429-1s.722-1 1.605-1c2.435 0 21.441-19.726 25.226-26.181C214.056 160.081 218 145.76 218 128c0-23.577-7.639-43.621-22.959-60.242-12.247-13.287-27.297-22.547-43.595-26.825-10.42-2.735-30.195-3.454-39.813-1.448M126 69.461c-21.86 4.652-38 17.119-38 29.352 0 6.728 13.456 16.676 21.646 16.004 4.226-.348 4.154-.104 2.777-9.437-1.024-6.939 3.536-12.682 14.584-18.368 11.408-5.871 30.885-8.677 41.896-6.035 2.863.687 5.506.947 5.874.579 1.658-1.658-2.784-6.278-9.161-9.53-6.644-3.388-7.139-3.48-19.965-3.711-8.293-.15-15.552.274-19.651 1.146m36.424 20.685c-10.514 1.202-30.963 10.364-33.84 15.163-1.434 2.392 1.864 5.026 5.416 4.324 17.218-3.403 22.107-3.918 26.031-2.742 5.573 1.67 6.678 4.342 5.248 12.692-1.356 7.915-5.206 16.35-14.439 31.636-9.423 15.602-8.3 18.195 4.66 10.76 17.684-10.145 33.969-32.495 35.243-48.369.671-8.355-.023-10.808-4.443-15.7-6.333-7.01-12.611-9.051-23.876-7.764m-54.307 48.353c-4.243 4.982-6.941 8.977-6.522 9.654.404.654.279.887-.287.537-.551-.34-2.308.828-3.905 2.596L94.5 154.5l3.21-2.899 3.21-2.898 5.54 5.54c4.43 4.43 5.557 6.213 5.624 8.898.099 3.925 5.787-25.073 5.864-29.891.033-2.055-.434-3.25-1.271-3.25-.728 0-4.58 3.824-8.56 8.499M88.872 148.75c-1.243 1.586-1.208 1.621.378.378.963-.755 1.75-1.543 1.75-1.75 0-.823-.821-.294-2.128 1.372m2.533 9.5L89.5 160.5l2.25-1.905c2.114-1.79 2.705-2.595 1.905-2.595-.19 0-1.202 1.012-2.25 2.25m19.847 12.25c.011 2.2.216 2.982.455 1.738.239-1.244.23-3.044-.02-4s-.446.062-.435 2.262" fill="#1976D2" fill-rule="evenodd"/><path fill-opacity=".219" d="M112.909 39.483c-4.174.795-8.899 1.986-10.5 2.647-1.6.661-3.134 1.247-3.409 1.302-.275.054-1.062.456-1.75.892-.687.437-1.257.43-1.265-.015-.009-.445-.387-.224-.84.491-.454.715-1.797 1.373-2.985 1.463-1.198.09-2.167.847-2.175 1.7-.014 1.357-.129 1.362-.985.037-.804-1.244-.975-1.159-1 .5-.025 1.659-.196 1.744-1 .5-.83-1.285-.972-1.251-.985.235-.008.955 4.877 6.7 10.856 12.768 8.266 8.39 11.321 10.895 12.75 10.456 1.033-.317.192.361-1.871 1.506-5.434 3.018-4.598 3.312 1.5.527 16.096-7.351 39.23-9.023 54.088-3.909C168.233 72.268 176 78.63 176 80.955c0 .897-1.088 1.095-3.75.684-10.015-1.549-19.413-1.816-25.66-.728-8.737 1.521-17.82 4.909-16.947 6.32.402.65.196.788-.518.346-1.231-.76-9.47 3.555-10.754 5.632-.403.651.715.154 2.484-1.106 3.536-2.518 3.703-2.463 9.471 3.147 1.555 1.513 3.324 2.75 3.931 2.75.607 0-.778 1.61-3.077 3.578-4.549 3.893-5.066 5.445-2.519 7.55 1.513 1.25 1.541 1.18.31-.797-1.668-2.678-.492-4.386 5.753-8.361 2.323-1.479 3.898-3.049 3.5-3.49-.398-.44-.194-.497.453-.126.648.371 3.573-.28 6.5-1.447 9.92-3.952 15.304-5.236 22.323-5.321 8.664-.106 14.95 2.667 19.728 8.705 3.157 3.989 3.271 4.452 3.242 13.172-.027 8.02-.386 9.799-3.197 15.808-1.741 3.724-4.119 8.108-5.283 9.743-1.164 1.635-1.856 3.394-1.537 3.91.319.516.053 1.263-.591 1.661-.731.452-.903.291-.457-.43 1.616-2.616-.263-.798-5.268 5.095-4.966 5.848-5.003 5.928-.573 1.25l4.736-5 13.85 13.811c7.617 7.597 13.85 13.355 13.85 12.796 0-.559 1.145-2.162 2.545-3.562S210.794 164 210.43 164c-.363 0 .077-1.125.978-2.5s1.348-2.5.993-2.5c-.355 0-.086-.675.599-1.5.685-.825.91-1.5.5-1.5-.41 0-.276-.565.298-1.256.573-.691 1.81-5.046 2.749-9.677 2.261-11.161 1.567-30.348-1.48-40.893-9.099-31.497-33.35-55.236-64.567-63.206-10.603-2.706-27.637-3.379-37.591-1.485M96.924 81.75L94.5 84.5l2.75-2.424C99.82 79.81 100.459 79 99.674 79c-.179 0-1.416 1.237-2.75 2.75M143 108c-2.257.723-2.292.81-.365.9 1.174.055 2.872 1.225 3.773 2.6 1.034 1.578 2.644 2.543 4.365 2.616 2.077.088 2.25.231.727.597-1.1.265-2.45.914-3 1.443-.648.624-.384.728.75.296.963-.366 2.537-.319 3.5.105.963.423 2.171.809 2.686.857.515.047 1.311 1.528 1.767 3.291.457 1.763 1.766 3.861 2.91 4.661 1.489 1.043 1.912 2.12 1.493 3.795-.322 1.287.106.829.95-1.016 2.125-4.643 3.611-13.092 2.886-16.403-.333-1.517-1.438-3.205-2.458-3.75-2.169-1.161-16.351-1.156-19.984.008m3.75.662c.688.278 1.813.278 2.5 0 .688-.277.125-.504-1.25-.504s-1.937.227-1.25.504m-8.937 1.021c.721.289 1.584.253 1.916-.079.332-.332-.258-.568-1.312-.525-1.165.048-1.402.285-.604.604m-5.544 1.01c.973.254 2.323.237 3-.037.677-.274-.119-.481-1.769-.461-1.65.02-2.204.244-1.231.498m12.136 8.557l-1.905 2.25 2.25-1.905c1.238-1.048 2.25-2.06 2.25-2.25 0-.8-.805-.209-2.595 1.905M155.3 123c0 3.025.187 4.263.416 2.75.229-1.513.229-3.987 0-5.5s-.416-.275-.416 2.75m3.844 11.75c-1.091 2.55-1.066 2.609.34.809.834-1.068 1.516-2.305 1.516-2.75 0-1.52-.678-.81-1.856 1.941" fill="#1976D2" fill-rule="evenodd"/></svg>