<svg width="42" height="42" viewBox="0 0 42 42" fill="none" xmlns="http://www.w3.org/2000/svg">
<path d="M31.2421 31.2421C36.9936 25.4906 36.9936 16.1655 31.2421 10.414C25.4906 4.66251 16.1656 4.66251 10.414 10.414C4.66252 16.1655 4.66252 25.4906 10.414 31.2421C16.1656 36.9936 25.4906 36.9936 31.2421 31.2421Z" fill="url(#paint0_linear)"/>
<path fill-rule="evenodd" clip-rule="evenodd" d="M30.6242 16.2951C32.2018 18.6504 29.2154 24.4899 24.3714 26.7253C23.927 26.8986 23.367 26.8409 23.407 26.6631C23.7181 25.441 27.3045 21.3302 26.9889 18.2193C26.8112 16.495 23.0826 17.4105 21.7271 17.806C21.7271 17.806 19.1762 17.575 22.8026 15.8284C26.4556 14.1841 28.9799 13.9619 30.6242 16.2951Z" fill="white"/>
<path fill-rule="evenodd" clip-rule="evenodd" d="M27.9755 13.2465C26.4823 12.7398 23.6514 12.6643 20.9627 13.9264C18.274 15.1885 17.6785 16.5351 18.2963 17.7172C18.914 18.8993 17.4563 19.1215 15.3098 17.5839C13.1634 16.0462 14.9321 13.5842 17.563 12.251C20.3672 10.8556 26.4423 10.1756 28.3221 12.7665C28.7354 13.4287 28.3221 13.362 27.9755 13.2465Z" fill="white"/>
<path fill-rule="evenodd" clip-rule="evenodd" d="M23.6247 23.2278C23.6311 23.2586 23.6464 23.2868 23.6686 23.309C23.6909 23.3311 23.7192 23.3462 23.75 23.3524C23.7809 23.3585 23.8128 23.3555 23.8419 23.3436C23.871 23.3317 23.8959 23.3116 23.9136 23.2856C24.358 22.6012 25.2957 20.9747 25.1268 19.5437C24.9313 18.2327 23.727 19.1793 23.1181 20.1259C22.7537 20.6947 20.7094 24.8277 20.0295 25.9032C19.9495 26.032 19.9184 26.0143 19.9495 25.8809C20.6694 22.9123 22.0427 17.2505 19.3762 19.0771C18.2646 19.8264 17.2803 20.7491 16.4609 21.8102C15.2077 23.4323 14.1011 24.881 11.5235 28.734C11.5008 28.7669 11.4912 28.807 11.4965 28.8465C11.5019 28.8861 11.5218 28.9222 11.5524 28.9478C11.583 28.9734 11.6221 28.9866 11.662 28.9849C11.7019 28.9832 11.7397 28.9666 11.7679 28.9385C13.6256 27.072 14.5455 25.8943 17.8163 22.099C18.1407 21.708 19.5095 19.9925 19.2607 21.7835C18.9362 24.0322 18.4874 25.6321 18.2296 28.2452C18.1541 29.0274 18.674 29.6895 20.4517 27.3564C21.6605 25.7965 21.9093 25.0188 23.0826 22.9123C23.367 22.4457 23.5225 22.6768 23.6247 23.2278Z" fill="white"/>
<defs>
<linearGradient id="paint0_linear" x1="7.05051" y1="34.5993" x2="36.2748" y2="5.37951" gradientUnits="userSpaceOnUse">
<stop stop-color="#6EC6D8"/>
<stop offset="1" stop-color="#8D2F88"/>
</linearGradient>
</defs>
</svg>
